Patient4_TMGait_0pt4_03_right_22_EMG.mot
version=1
nRows=26
nColumns=33
inDegrees=no
endheader
time	1LAddLong	2LGlutMax	3LGlutMed	4LIliopsoas	5LSemiMemb	6LBicFemLong	7LRecFem	8LVastMed	9LVastLat	10LGasMed	11LTibAnt	12lTibPost	13LPeroneusLong	14LSol	15LExtDigLong	16LFlexDigLong	17RAddLong	18RGlutMax	19RGlutMed	20RIliopsoas	21RSemiMemb	22RBicFemLong	23RRecFem	24RVastMed	25RVastLat	26RGasMed	27RTibAnt	28RTibPost	29RPeroneusLong	30RSol	31RExtDigLong	32RFlexDigLong
29.05	0.001526	-0.014954	-0.069122	0.001526	0.001526	0.10986	-0.066986	-0.013275	-0.055389	0.025635	0.016327	0.018158	-0.005341	-0.10544	0.000916	0.00946	0.050812	0.14862	-0.01709	0.058899	-0.38391	0.15503	-0.17899	0.006256	0.012207	0.032654	0.006714	-0.011902	-0.42526	0.22293	0.005188	-0.001526
29.051	0.023804	-0.014038	-0.037994	0.014648	0.11337	-0.17136	-0.058746	-0.024109	0.006256	0.014496	0.002594	0.010376	-0.005798	-0.014038	0.001984	0.007019	0.019836	0.18387	-0.033722	0.033417	-0.20187	0.11444	-0.20218	0.008698	0.029297	-0.000763	0.066376	-0.017242	-0.69473	0.035248	0.002747	0.009918
29.052	0.042877	-0.02121	-0.013733	-0.012054	0.17075	-0.32852	-0.019989	-0.020752	0.074768	0.005188	0.005493	0.021973	0.002289	0.059357	0.010529	0.01358	0.00946	0.092468	0.049896	0.045471	0.14267	0.090485	-0.22415	-0.00946	0.05127	-0.081482	0.049286	-0.020599	0.35492	0.045776	-0.001068	-0.006256
29.053	0.040894	-0.016937	0.013733	-0.003357	0.15396	-0.40237	-0.02655	-0.011749	0.15595	0.009155	0.01297	0.019531	-0.001984	0.069275	-0.00061	0.010223	-0.019073	0.12375	0.042725	-0.012665	0.17563	0.12985	-0.24674	-0.055847	0.06012	-0.046387	0.06485	-0.029907	0.76965	0.029297	-0.003662	-0.010681
29.054	0.029755	-0.006256	0.011292	-0.000458	0.089722	-0.32822	0.021667	-0.011444	0.15564	-0.020752	-0.000458	0.023804	0.018311	0.097809	0.009003	0.001221	-0.02533	0.10803	0.041351	-0.03418	0.17242	0.036621	-0.28519	-0.008087	0.086365	0.030365	0.036316	0.010681	-0.24674	-0.16617	-0.001526	-0.012207
29.055	0.015106	-0.046234	-0.011749	0.018005	0.01297	-0.17242	0.08255	-0.008392	0.072327	-0.024872	0.007477	0.023651	0.024567	0.21851	0.010834	0.007935	0.005341	0.12512	0.037079	-0.056	0.081177	0.077515	-0.29236	-0.014191	0.07431	0.067444	0.056763	0.088959	-0.46188	-0.25131	-0.003662	-0.016022
29.056	-0.003967	-0.054016	-0.059204	0.015564	0.011749	-0.018768	0.056152	0.000763	0.050049	-0.025177	0.012512	0.023651	0.043793	0.25711	0.010529	0.004883	-0.003052	0.12207	-0.075226	0.046997	0.12497	0.051117	-0.27527	-0.02121	0.066528	0.011292	0.007935	0.002441	0.53589	-0.19119	-0.001068	-0.02121
29.057	-0.018311	-0.026703	-0.084686	0.007172	0.02533	0.060577	-0.009918	0.012512	0.030975	-0.02121	0.004272	0.01709	0.076599	0.15091	0.014954	0.005798	0.00351	0.13626	-0.048676	0.074463	0.083771	0.031433	-0.27344	-0.042725	0.041046	-0.028381	-0.096893	-0.030823	0.1944	-0.040894	-0.00473	-0.015411
29.058	-0.035553	-0.043182	-0.089111	-0.000305	-0.002289	0.15228	-0.045013	0.012665	-0.098267	0.005341	0.012054	0.017853	0.014038	0.10483	-0.001984	0.018921	0.010986	0.059052	0.001678	0.071259	-0.067902	0.052032	-0.26504	-0.007172	0.041809	-0.13626	-0.047607	-0.024719	-0.49683	0.031586	0.001526	-0.020447
29.059	-0.024719	-0.015106	-0.018005	0.009003	-0.058594	0.14343	-0.094757	0.019226	-0.24429	0.009155	0.007782	0.026398	-0.092468	0.11215	0.010834	0.020447	0.020905	0.11185	0.018311	0.008087	-0.14572	-0.048218	-0.27435	-0.000916	0.043488	-0.20218	-0.015259	-0.02121	-0.32471	0.1329	-0.001526	-0.019531
29.06	0.002594	-0.005188	0.056305	-0.00473	-0.035553	0.031433	-0.14618	0.021973	-0.17792	0.00885	0.010986	0.012207	-0.14954	0.12466	-0.001373	0.032196	0.021057	0.09964	-0.022888	-0.042419	-0.12421	-0.072021	-0.2803	-0.046844	0.030823	-0.19928	-0.033569	-0.025482	0.10559	0.24918	-0.002899	-0.024261
29.061	0.010071	-0.003357	0.039978	-0.009155	-0.031281	-0.076904	-0.17685	0.013733	0.10803	0.008698	0.000305	0.02121	-0.034943	0.12573	-0.016785	0.016632	0.044861	0.065918	-0.012054	-0.037079	-0.08728	-0.035553	-0.23056	-0.066071	-0.002289	-0.083466	-0.031738	-0.028534	0.026703	0.10147	-0.005646	-0.026855
29.062	0.025482	0.033417	0.035858	-0.009155	0.048065	-0.088959	-0.13565	0.021973	0.33722	0.011902	-0.004578	0.026703	0.010986	0.14984	-0.007629	0.025635	0.037994	0.079803	-0.001678	0.012207	-0.072021	-0.084686	-0.25543	0.012665	-0.000458	0.12589	-0.04425	0.018005	0.20386	-0.21622	-0.005798	-0.02182
29.063	0.034332	0.17914	0.001526	0.00351	0.015106	-0.063629	-0.043945	0.005798	0.32867	0.021057	0.002136	0.019531	-0.12009	0.14008	-0.005188	0.024567	0.036469	0.061493	-0.049744	0.089111	-0.078583	-0.090637	-0.23666	-0.00473	-0.001068	0.21759	-0.036926	0.065308	0.2684	-0.25207	-0.002289	-0.024567
29.064	0.018311	0.1857	0.017853	0.010071	0.010376	-0.15289	-0.03067	0.002441	0.18326	0.014191	0.008698	0.030212	-0.023804	0.16754	0.014954	0.020905	0.058594	0.005341	-0.029144	0.027618	-0.070953	-0.0177	-0.2681	-0.008698	0.008698	0.10117	-0.011292	-0.030518	0.24094	-0.023956	-0.001678	-0.024261
29.065	0.009155	0.1535	0.002136	0.01709	0.012207	-0.057983	-0.078735	-0.002136	0.15152	0.005951	0.005646	0.034485	0.054016	0.1474	-0.003052	0.030212	0.055695	0.050812	-0.024109	-0.001526	-0.084991	0.06546	-0.26321	-0.058899	0.011902	0.072021	0.002899	-0.049438	0.18097	0.32471	-0.003662	-0.019379
29.066	-0.009155	0.17899	-0.021362	0.004578	0.02533	-0.002594	-0.043488	0.010986	0.088501	0.000305	0.008545	0.043793	0.31326	0.11887	-0.012817	0.016327	0.054626	0.075836	-0.023956	-0.10193	-0.1149	0.14023	-0.27084	-0.093842	0.019531	0.032654	0.00946	0.06424	0.083008	0.53162	-0.000458	-0.02182
29.067	-0.020142	0.23499	-0.023041	0.007477	0.00885	0.048218	0.000305	0.023804	-0.067596	0.005035	0.011749	0.04776	0.22614	0.11581	-0.011597	0.026855	0.065613	-0.001373	-0.000916	-0.10376	-0.12543	0.080872	-0.3183	-0.11673	0.032501	0.023193	-0.009918	0.01358	0.039215	0.64728	-0.003204	-0.02121
29.068	-0.031128	0.22492	-0.006561	-0.00946	0.012207	0.1149	0.074005	0.032806	-0.28275	0.018311	0.01358	0.05249	0.16968	0.045776	-0.004272	0.019989	0.10605	0.062714	-0.044098	-0.042267	-0.1181	-0.068207	-0.31586	-0.11841	0.028229	0.019989	-0.016632	-0.008698	0.02533	0.47623	0.001526	-0.016479
29.069	-0.035553	0.15945	-0.011749	0.002899	0.001221	0.053711	0.073853	0.041962	-0.49286	-0.001526	0.007935	0.044708	0.17349	0.086365	0.004578	0.027618	0.095673	0.043793	-0.037231	0.050964	-0.12604	-0.16037	-0.36041	-0.035248	0.052948	-0.015259	-0.004578	-0.02594	-0.070496	0.14481	-0.002441	-0.016785
29.07	-0.023956	0.12528	-0.056152	0.003357	-0.001831	-0.036469	0.051117	0.046539	-0.46707	-0.010071	-0.019379	0.041504	0.048828	0.12009	0.010223	0.039215	0.070343	0.094604	0.004578	0.09552	-0.15442	-0.12054	-0.3743	-0.040588	0.054626	0.010376	0.008087	-0.019989	-0.14526	0.10498	-0.001678	-0.01709
29.071	-0.008392	0.093231	-0.082245	0.01297	0.010223	-0.13702	0.020905	0.060272	-0.29098	0.003815	-0.004578	0.034637	-0.20737	0.10971	0.007629	0.032806	0.019684	0.11124	0.049591	0.027924	-0.11856	-0.063171	-0.36911	0.076904	0.055237	0.006714	-0.003967	0.042419	-0.14984	0.21896	-0.001526	-0.014954
29.072	0.015411	0.009308	-0.1329	0.015259	0.062714	-0.14526	-0.086975	0.045776	-0.11215	0.02243	0.005188	0.065308	-0.32379	0.12466	-0.028839	0.048218	-0.060272	0.085907	0.016327	-0.017395	-0.066833	-0.066528	-0.38238	0.088348	0.063934	0.03067	-0.009003	0.002289	-0.032959	0.010834	0.002594	-0.011444
29.073	0.016022	-0.01709	-0.095062	0.010529	0.02655	-0.069275	-0.14572	0.020294	-0.011597	0.03006	-0.006104	0.049438	0.035553	0.080872	-0.042267	0.052948	-0.10025	0.10269	0.054474	-0.006256	-0.038452	-0.020294	-0.36285	0.097656	0.070496	0.005951	0.049133	0.000763	-0.023193	-0.25635	-0.003815	-0.00824
29.074	0.023041	-0.072479	-0.063934	0.007019	-0.067291	-0.016327	-0.10254	-0.011444	0.10223	-0.01236	0.002747	0.007019	0.12558	0.13657	-0.01709	0.052948	-0.13657	0.12177	0.066833	0.001068	-0.026093	0.052643	-0.42664	0.12711	0.060883	0.001526	0.04364	0.006561	0.084991	-0.67764	-0.010986	-0.022278
29.075	0.035248	-0.017548	-0.003204	0.003052	-0.049896	0.028076	-0.068512	-0.043335	0.17792	-0.058746	-0.010071	0.012665	0.057678	0.16754	0.016022	0.055695	-0.13214	0.089569	0.048828	-0.066833	-0.075684	0.28656	-0.41382	0.15228	0.044556	0.013275	0.019836	0.003967	0.20416	-0.56625	0.006256	-0.019989
